<svg width="58" height="40" viewBox="0 0 58 40" fill="none" xmlns="http://www.w3.org/2000/svg">
<path d="M47.1104 2.5H10.3869C6.03035 2.5 2.49866 6.03117 2.49866 10.3871V30.1379C2.49866 34.4938 6.03035 38.025 10.3869 38.025H47.1104C51.467 38.025 54.9987 34.4938 54.9987 30.1379V10.3871C54.9987 6.03117 51.467 2.5 47.1104 2.5Z" fill="white" stroke="#D9D9D9"/>
<path fill-rule="evenodd" clip-rule="evenodd" d="M13.4041 15L8.74866 25.2993H14.3218L15.0127 23.6572H16.592L17.2829 25.2993H23.4174V24.046L23.964 25.2993H27.1372L27.6839 24.0195V25.2993H40.442L41.9933 23.6998L43.4459 25.2993L49.9987 25.3125L45.3286 20.1784L49.9987 15H43.5475L42.0374 16.57L40.6305 15H26.7514L25.5596 17.6584L24.3398 15H18.7783V16.2107L18.1596 15H13.4041ZM32.4556 16.4626H39.7819L42.0227 18.8823L44.3356 16.4626H46.5764L43.1718 20.177L46.5764 23.8486H44.234L41.9933 21.4007L39.6684 23.8486H32.4556V16.4626ZM34.2648 19.3418V17.9927V17.9914H38.8362L40.8308 20.149L38.7478 22.3184H34.2648V20.8456H38.2616V19.3418H34.2648ZM14.4824 16.4626H17.199L20.2869 23.4465V16.4626H23.2629L25.648 21.47L27.8461 16.4626H30.8072V23.8529H29.0054L28.9907 18.0618L26.3639 23.8529H24.7521L22.1107 18.0618V23.8529H18.4041L17.7014 22.1961H13.9049L13.2037 23.8515H11.2177L14.4824 16.4626ZM14.5532 20.6645L15.804 17.713L17.0533 20.6645H14.5532Z" fill="#434343"/>
<rect x="6" y="8" width="44" height="25" fill="white" style="mix-blend-mode:saturation"/>
</svg>
