<svg width="58" height="40" viewBox="0 0 58 40" fill="none" xmlns="http://www.w3.org/2000/svg">
<path d="M47.1129 2.5H10.3894C6.03285 2.5 2.50116 6.09623 2.50116 10.5324V30.6472C2.50116 35.0833 6.03285 38.6796 10.3894 38.6796H47.1129C51.4695 38.6796 55.0012 35.0833 55.0012 30.6472V10.5324C55.0012 6.09623 51.4695 2.5 47.1129 2.5Z" fill="white" stroke="#D9D9D9"/>
<path fill-rule="evenodd" clip-rule="evenodd" d="M28.4819 29.0116C26.5243 30.7254 23.985 31.76 21.2102 31.76C15.0188 31.76 9.99976 26.609 9.99976 20.255C9.99976 13.901 15.0188 8.75 21.2102 8.75C23.985 8.75 26.5243 9.78461 28.4819 11.4984C30.4395 9.78461 32.9788 8.75006 35.7535 8.75006C41.9449 8.75006 46.964 13.901 46.964 20.255C46.964 26.6091 41.9449 31.76 35.7535 31.76C32.9788 31.76 30.4394 30.7254 28.4819 29.0116Z" fill="#ED0006"/>
<path fill-rule="evenodd" clip-rule="evenodd" d="M28.481 29.0116C30.8913 26.9014 32.4198 23.7614 32.4198 20.255C32.4198 16.7486 30.8913 13.6086 28.481 11.4983C30.4385 9.78455 32.9778 8.75 35.7526 8.75C41.944 8.75 46.963 13.901 46.963 20.255C46.963 26.609 41.944 31.76 35.7526 31.76C32.9778 31.76 30.4385 30.7254 28.481 29.0116Z" fill="#F9A000"/>
<path fill-rule="evenodd" clip-rule="evenodd" d="M28.4795 29.0114C30.8899 26.9012 32.4183 23.7612 32.4183 20.2548C32.4183 16.7485 30.8899 13.6085 28.4795 11.4983C26.0691 13.6085 24.5407 16.7485 24.5407 20.2548C24.5407 23.7612 26.0691 26.9012 28.4795 29.0114Z" fill="#FF5E00"/>
<rect x="6" y="6" width="46" height="26" fill="black" style="mix-blend-mode:saturation"/>
</svg>
