<svg width="54" height="38" viewBox="0 0 54 38" fill="none" xmlns="http://www.w3.org/2000/svg">
<path d="M45.1116 1.25H8.3881C4.03151 1.25 0.499817 4.78117 0.499817 9.13708V28.8879C0.499817 33.2438 4.03151 36.7751 8.3881 36.7751H45.1116C49.4681 36.7751 52.9998 33.2438 52.9998 28.8879V9.13708C52.9998 4.78117 49.4681 1.25 45.1116 1.25Z" fill="white" stroke="#EBE7E4"/>
<path fill-rule="evenodd" clip-rule="evenodd" d="M16.8128 25.0358H13.3294L10.7173 15.2346C10.5933 14.7837 10.33 14.3851 9.9428 14.1973C8.9764 13.7252 7.91154 13.3495 6.74982 13.16V12.7827H12.3613C13.1357 12.7827 13.7166 13.3495 13.8134 14.0078L15.1687 21.0777L18.6504 12.7827H22.037L16.8128 25.0358ZM23.9731 25.0358H20.6833L23.3923 12.7827H26.6821L23.9731 25.0358ZM30.9382 16.1773C31.035 15.5174 31.6159 15.14 32.2935 15.14C33.3584 15.0453 34.5184 15.2347 35.4865 15.7052L36.0674 13.067C35.0993 12.6897 34.0344 12.5002 33.068 12.5002C29.875 12.5002 27.5517 14.1975 27.5517 16.553C27.5517 18.345 29.1974 19.2859 30.3591 19.8528C31.6159 20.418 32.0999 20.7953 32.0031 21.3605C32.0031 22.2083 31.035 22.5857 30.0686 22.5857C28.907 22.5857 27.7452 22.303 26.6821 21.8309L26.1012 24.4707C27.2629 24.9412 28.5197 25.1307 29.6814 25.1307C33.2616 25.2238 35.4865 23.5282 35.4865 20.9831C35.4865 17.7782 30.9382 17.5903 30.9382 16.1773ZM46.9998 25.0358L44.3877 12.7827H41.582C41.0011 12.7827 40.4203 13.16 40.2267 13.7252L35.3897 25.0358H38.7762L39.4522 23.2454H43.6132L44.0005 25.0358H46.9998ZM42.066 16.0826L43.0324 20.7007H40.3234L42.066 16.0826Z" fill="#172B85"/>
<g style="mix-blend-mode:saturation">
<path d="M51 5H4V33H51V5Z" fill="black"/>
</g>
</svg>
